{
	"asset":{
		"generator":"Khronos glTF Blender I/O v3.6.27",
		"version":"2.0"
	},
	"extensionsUsed":[
		"KHR_materials_specular",
		"KHR_materials_ior",
		"KHR_texture_transform"
	],
	"extensionsRequired":[
		"KHR_texture_transform"
	],
	"scene":0,
	"scenes":[
		{
			"name":"Scene",
			"nodes":[
				0,
				1,
				2,
				3
			]
		}
	],
	"nodes":[
		{
			"mesh":0,
			"name":"Cylinder",
			"translation":[
				0,
				0.75,
				0
			]
		},
		{
			"mesh":1,
			"name":"Torus thing",
			"translation":[
				0,
				1.4159661531448364,
				0
			]
		},
		{
			"mesh":2,
			"name":"Base",
			"scale":[
				1,
				0.75,
				1
			],
			"translation":[
				0,
				0.75,
				0
			]
		},
		{
			"mesh":3,
			"name":"Lid",
			"scale":[
				1.0999999046325684,
				1.0999999046325684,
				1.0999999046325684
			],
			"translation":[
				0,
				1.4700000286102295,
				0
			]
		}
	],
	"materials":[
		{
			"doubleSided":true,
			"extensions":{
				"KHR_materials_specular":{
					"specularColorFactor":[
						1.7785182108310484,
						1.7785182108310484,
						1.7785182108310484
					]
				},
				"KHR_materials_ior":{
					"ior":1.4500000476837158
				}
			},
			"name":"Material.001",
			"pbrMetallicRoughness":{
				"baseColorFactor":[
					0,
					0.0800001248717308,
					0.8000000715255737,
					1
				],
				"metallicFactor":0,
				"roughnessFactor":0
			}
		},
		{
			"doubleSided":true,
			"extensions":{
				"KHR_materials_specular":{
					"specularColorFactor":[
						1.7785182108310484,
						1.7785182108310484,
						1.7785182108310484
					]
				},
				"KHR_materials_ior":{
					"ior":1.4500000476837158
				}
			},
			"name":"Material.002",
			"pbrMetallicRoughness":{
				"baseColorFactor":[
					0,
					0.08021951466798782,
					0.7991027235984802,
					1
				],
				"metallicFactor":0,
				"roughnessFactor":0.5
			}
		},
		{
			"doubleSided":true,
			"name":"Material.004",
			"pbrMetallicRoughness":{
				"baseColorTexture":{
					"extensions":{
						"KHR_texture_transform":{
							"offset":[
								-0.5,
								0.09999978542327881
							],
							"scale":[
								1,
								1.7000001668930054
							]
						}
					},
					"index":0
				},
				"metallicFactor":0,
				"roughnessFactor":0.5
			}
		},
		{
			"doubleSided":true,
			"name":"Material.005",
			"pbrMetallicRoughness":{
				"baseColorTexture":{
					"extensions":{
						"KHR_texture_transform":{
							"offset":[
								-0.260000079870224,
								0.19000008702276716
							],
							"scale":[
								1,
								0.9999998807907247
							]
						}
					},
					"index":1
				},
				"metallicFactor":0,
				"roughnessFactor":0.5
			}
		}
	],
	"meshes":[
		{
			"name":"Cylinder",
			"primitives":[
				{
					"attributes":{
						"POSITION":0,
						"NORMAL":1,
						"TEXCOORD_0":2
					},
					"indices":3,
					"material":0
				}
			]
		},
		{
			"name":"Torus.001",
			"primitives":[
				{
					"attributes":{
						"POSITION":4,
						"NORMAL":5,
						"TEXCOORD_0":6
					},
					"indices":7,
					"material":1
				}
			]
		},
		{
			"name":"Cylinder.002",
			"primitives":[
				{
					"attributes":{
						"POSITION":8,
						"NORMAL":9,
						"TEXCOORD_0":10
					},
					"indices":11,
					"material":2
				}
			]
		},
		{
			"name":"Sphere",
			"primitives":[
				{
					"attributes":{
						"POSITION":12,
						"NORMAL":13,
						"TEXCOORD_0":14
					},
					"indices":15,
					"material":3
				}
			]
		}
	],
	"textures":[
		{
			"sampler":0,
			"source":0
		},
		{
			"sampler":1,
			"source":1
		}
	],
	"images":[
		{
			"mimeType":"image/jpeg",
			"name":"1srhtrdhredht",
			"uri":"1srhtrdhredht.jpg"
		},
		{
			"mimeType":"image/jpeg",
			"name":"testes",
			"uri":"testes.jpg"
		}
	],
	"accessors":[
		{
			"bufferView":0,
			"componentType":5126,
			"count":33989,
			"max":[
				0.5,
				1.25,
				0.5
			],
			"min":[
				-0.5,
				-0.75,
				-0.5
			],
			"type":"VEC3"
		},
		{
			"bufferView":1,
			"componentType":5126,
			"count":33989,
			"type":"VEC3"
		},
		{
			"bufferView":2,
			"componentType":5126,
			"count":33989,
			"type":"VEC2"
		},
		{
			"bufferView":3,
			"componentType":5123,
			"count":51828,
			"type":"SCALAR"
		},
		{
			"bufferView":4,
			"componentType":5126,
			"count":7196,
			"max":[
				0.5980785489082336,
				0.10000000149011612,
				0.5980785489082336
			],
			"min":[
				-0.5980785489082336,
				1.2246468525851679e-17,
				-0.5980785489082336
			],
			"type":"VEC3"
		},
		{
			"bufferView":5,
			"componentType":5126,
			"count":7196,
			"type":"VEC3"
		},
		{
			"bufferView":6,
			"componentType":5126,
			"count":7196,
			"type":"VEC2"
		},
		{
			"bufferView":7,
			"componentType":5123,
			"count":10794,
			"type":"SCALAR"
		},
		{
			"bufferView":8,
			"componentType":5126,
			"count":768,
			"max":[
				0.5,
				1,
				0.5
			],
			"min":[
				-0.5,
				-1,
				-0.5
			],
			"type":"VEC3"
		},
		{
			"bufferView":9,
			"componentType":5126,
			"count":768,
			"type":"VEC3"
		},
		{
			"bufferView":10,
			"componentType":5126,
			"count":768,
			"type":"VEC2"
		},
		{
			"bufferView":11,
			"componentType":5123,
			"count":1524,
			"type":"SCALAR"
		},
		{
			"bufferView":12,
			"componentType":5126,
			"count":15744,
			"max":[
				0.4993976354598999,
				0.5,
				0.4993974566459656
			],
			"min":[
				-0.499397337436676,
				0.024533838033676147,
				-0.49939727783203125
			],
			"type":"VEC3"
		},
		{
			"bufferView":13,
			"componentType":5126,
			"count":15744,
			"type":"VEC3"
		},
		{
			"bufferView":14,
			"componentType":5126,
			"count":15744,
			"type":"VEC2"
		},
		{
			"bufferView":15,
			"componentType":5123,
			"count":23424,
			"type":"SCALAR"
		}
	],
	"bufferViews":[
		{
			"buffer":0,
			"byteLength":407868,
			"byteOffset":0,
			"target":34962
		},
		{
			"buffer":0,
			"byteLength":407868,
			"byteOffset":407868,
			"target":34962
		},
		{
			"buffer":0,
			"byteLength":271912,
			"byteOffset":815736,
			"target":34962
		},
		{
			"buffer":0,
			"byteLength":103656,
			"byteOffset":1087648,
			"target":34963
		},
		{
			"buffer":0,
			"byteLength":86352,
			"byteOffset":1191304,
			"target":34962
		},
		{
			"buffer":0,
			"byteLength":86352,
			"byteOffset":1277656,
			"target":34962
		},
		{
			"buffer":0,
			"byteLength":57568,
			"byteOffset":1364008,
			"target":34962
		},
		{
			"buffer":0,
			"byteLength":21588,
			"byteOffset":1421576,
			"target":34963
		},
		{
			"buffer":0,
			"byteLength":9216,
			"byteOffset":1443164,
			"target":34962
		},
		{
			"buffer":0,
			"byteLength":9216,
			"byteOffset":1452380,
			"target":34962
		},
		{
			"buffer":0,
			"byteLength":6144,
			"byteOffset":1461596,
			"target":34962
		},
		{
			"buffer":0,
			"byteLength":3048,
			"byteOffset":1467740,
			"target":34963
		},
		{
			"buffer":0,
			"byteLength":188928,
			"byteOffset":1470788,
			"target":34962
		},
		{
			"buffer":0,
			"byteLength":188928,
			"byteOffset":1659716,
			"target":34962
		},
		{
			"buffer":0,
			"byteLength":125952,
			"byteOffset":1848644,
			"target":34962
		},
		{
			"buffer":0,
			"byteLength":46848,
			"byteOffset":1974596,
			"target":34963
		}
	],
	"samplers":[
		{
			"magFilter":9729,
			"minFilter":9987
		},
		{
			"magFilter":9729,
			"minFilter":9987,
			"wrapS":33071,
			"wrapT":33071
		}
	],
	"buffers":[
		{
			"byteLength":2021444,
			"uri":"grafkom.bin"
		}
	]
}
